<?xml version="1.0" standalone="no"?><!DOCTYPE svg PUBLIC "-//W3C//DTD SVG 1.1//EN" "http://www.w3.org/Graphics/SVG/1.1/DTD/svg11.dtd"><svg t="1593491893487" class="icon" viewBox="0 0 1024 1024" version="1.1" xmlns="http://www.w3.org/2000/svg" p-id="907" xmlns:xlink="http://www.w3.org/1999/xlink" width="200" height="200"><defs><style type="text/css"></style></defs><path d="M512 65.81c-262.54 0-475.38 214.62-475.38 479.37a479.87 479.87 0 0 0 196.53 388.14l-5.48-5.47 71-70.93c-97.87-68.3-162-181.64-162-310C136.7 338.21 306 169 514.78 169s378.08 169.19 378.08 377.9c0 114.33-50.87 216.72-131.13 286l68.43 68.37a479.89 479.89 0 0 0 157.22-356.08c0-264.75-212.84-479.38-475.38-479.38z m318.53 804.44l-36.65-36.62A399.79 399.79 0 0 0 915.1 546.92c0-220.64-179.58-400.14-400.32-400.14s-400.32 179.5-400.32 400.14a400.55 400.55 0 0 0 150.32 312.42l-39.62 39.59c-104.59-86.51-166.3-216.82-166.3-353.74C58.86 293.12 262.14 88.05 512 88.05s453.14 205.07 453.14 457.14a460 460 0 0 1-134.61 325.06z" fill="#979797" p-id="908"></path><path d="M559.26 833.75V558.22a33.36 33.36 0 0 0-66.72 0v275.53a66.72 66.72 0 1 0 66.72 0z m-33.36 102.2a44.44 44.44 0 0 1-22.21-83l11.09-6.43v-288.3a11.12 11.12 0 1 1 22.24 0v288.34l11.09 6.44a44.44 44.44 0 0 1-22.21 83z" fill="#979797" p-id="909"></path><path d="M777.93 833.41a388.57 388.57 0 0 0 40.26-530l57.89-48.73a471.08 471.08 0 0 1-45.64 631.19z" fill="#91AAFF" p-id="910"></path><path d="M874.32 270.69a460 460 0 0 1-43.79 599.56l-36.65-36.62A399.64 399.64 0 0 0 833.55 305l40.77-34.32m3.29-31.84l-75 63.16a376.2 376.2 0 0 1 90.27 244.92c0 114.33-50.87 216.72-131.13 286l68.43 68.37a482.13 482.13 0 0 0 47.45-662.47z" fill="#0839FF" p-id="911"></path></svg>