<?xml version="1.0" standalone="no"?><!DOCTYPE svg PUBLIC "-//W3C//DTD SVG 1.1//EN" "http://www.w3.org/Graphics/SVG/1.1/DTD/svg11.dtd"><svg t="1593477941327" class="icon" viewBox="0 0 1024 1024" version="1.1" xmlns="http://www.w3.org/2000/svg" p-id="2493" xmlns:xlink="http://www.w3.org/1999/xlink" width="200" height="200"><defs><style type="text/css"></style></defs><path d="M463 89.8v165c-121.09 23.38-210.28 130.72-210.28 256.89 0 144.3 116.45 261.69 259.59 261.69 132 0 241.63-99.12 257.59-229.06h162.19a424.07 424.07 0 0 1-125.88 271.79C727.12 894 622.69 936.85 512.15 936.85c-232.3 0-421.29-190.66-421.29-425 0-216.13 161.77-397.37 372.19-422m20.68-22.63C252.89 82 70.18 275.34 70.18 511.85c0 246.14 197.88 445.68 442 445.68 240.17 0 435.45-193.22 441.67-433.89H750.93C744.75 651.19 640.28 752.7 512.31 752.7c-131.95 0-238.92-107.91-238.92-241 0-123.34 91.86-225 210.32-239.24V67.18z" fill="#979797" p-id="2494"></path><path d="M759.23 477.29c-15.7-115.09-110-205.65-224.74-216V77.22c214.74 11.18 391 184 407.93 400.07z" fill="#91AAFF" p-id="2495"></path><path d="M544.83 88.25a418.16 418.16 0 0 1 261.32 119.3 424.7 424.7 0 0 1 124.94 259.4h-163c-19.35-112.43-111-200.56-223.26-214.89V88.25m-20.68-21.78V271c118.49 5.84 214.3 98.75 225.88 216.65h203.42c-12.27-230.9-198.78-414.96-429.3-421.18z" fill="#0839FF" p-id="2496"></path></svg>