<?xml version="1.0" standalone="no"?><!DOCTYPE svg PUBLIC "-//W3C//DTD SVG 1.1//EN" "http://www.w3.org/Graphics/SVG/1.1/DTD/svg11.dtd"><svg t="1593477934367" class="icon" viewBox="0 0 1024 1024" version="1.1" xmlns="http://www.w3.org/2000/svg" p-id="2357" xmlns:xlink="http://www.w3.org/1999/xlink" width="200" height="200"><defs><style type="text/css"></style></defs><path d="M448.26 204.87v365.68h366c-10 182.46-161.73 327.84-346.8 327.84-191.52 0-347.33-155.67-347.33-347 0-184.91 145.52-336.51 328.14-346.5M467.44 185c-202.5 0-366.66 164-366.66 366.36s164.16 366.37 366.66 366.37 366.66-164 366.66-366.36v-0.15H467.6V185z" fill="#979797" p-id="2358"></path><path d="M535.88 483.09V115.94h9.67c200.72 0 362.14 156.91 367.48 357.22l0.26 9.93z" fill="#91AAFF" p-id="2359"></path><path d="M545.55 125.61c194.5 0 352.67 154.86 357.81 347.81H545.55V125.61m0-19.34h-19.34v386.49h397l-0.53-19.85a377 377 0 0 0-377.13-366.64z" fill="#0839FF" p-id="2360"></path></svg>