<?xml version="1.0" standalone="no"?><!DOCTYPE svg PUBLIC "-//W3C//DTD SVG 1.1//EN" "http://www.w3.org/Graphics/SVG/1.1/DTD/svg11.dtd"><svg t="1593491961652" class="icon" viewBox="0 0 1024 1024" version="1.1" xmlns="http://www.w3.org/2000/svg" p-id="1180" xmlns:xlink="http://www.w3.org/1999/xlink" width="200" height="200"><defs><style type="text/css"></style></defs><path d="M63.92 959.73H256V767.85H64z m21.34-170.54h149.36V938.4H85.26zM298.63 959.73h192V767.85h-192zM320 789.19h149.33V938.4H320zM63.92 725.21H256V533.32H64z m21.34-170.55h149.36v149.21H85.26zM768 959.73h192V767.85H768z m21.34-170.55h149.4V938.4H789.38zM768 725.21h192V533.32H768z m21.34-170.55h149.4v149.21H789.38zM768 490.68h192V298.79H768z m21.34-170.55h149.4v149.21H789.38zM768 64.27v191.88h192V64.27z m170.7 170.55H789.38V85.6h149.36zM533.34 725.21h192V533.32h-192z m21.34-170.55H704v149.21H554.67zM533.34 959.73h192V767.85h-192z m21.34-170.55H704V938.4H554.67zM533.34 490.68h192V298.79h-192z m21.34-170.55H704v149.21H554.67zM298.63 725.21h192V533.32h-192zM320 554.66h149.33v149.21H320z" fill="#979797" p-id="1181"></path><path d="M74.59 309.46h170.7V480H74.59z" fill="#91AAFF" p-id="1182"></path><path d="M234.62 320.13v149.21H85.25V320.13h149.37M256 298.79H64v191.89h192V298.79z" fill="#0839FF" p-id="1183"></path></svg>